<svg height="512" viewbox="0 0 52 60" width="512" xmlns="http://www.w3.org/2000/svg"><g ><g><path d="m19.8 18c-1.0163834-4.9883292-5.618084-8.41691002-10.68870182-7.9638119-5.07061781.453098-8.99152803 4.6432387-9.10738081 9.7327417s3.61033399 9.4537152 8.65508263 10.1370702l2.049 27.318c.1232981 1.5627913 1.4243641 2.7699301 2.992 2.776h22.6c1.5676359-.0060699 2.8687019-1.2132087 2.992-2.776l2.7-36c.0623194-.8323048-.2249089-1.6529483-.7926622-2.2647254-.5677534-.611777-1.3647031-.9593788-2.1993378-.9592746h-1.109l1.289-2.967c.174.191.327.373.44.521.4205881.5679053 1.1282253.8462245 1.823.717 1.3691827-.2488725 2.779892-.1298181 4.088.345 1.0253753.3800402 1.9512474.9876011 2.708 1.777.3553731.3874735.8572385.6077427 1.383.607.1194226-.0001647.2385819-.0112104.356-.033.6448847-.117944 1.1824231-.561981 1.42-1.173.9019652-2.4219488.7832535-5.1061328-.329-7.439-1.656-3.781-5.4-7.113-10.028-8.918l-.02-.01c-.008858-.00312436-.0178697-.0057945-.027-.008-8.043-3.125-16.494-.876-18.84 5.017-.008.021-.024.068-.036.107-.2204117.58931225-.1286533 1.25004851.244 1.757.3919237.53050895 1.029384.82184377 1.687.771 1.0990231-.08916982 2.2042414.06340355 3.238.447 1.269907.5292567 2.3768302 1.3856729 3.208 2.482.4251758.5729407 1.1394463.8538379 1.841.724.385476-.0663723.7750634-.106133 1.166-.119l-2.329 5.395zm-17.8 2c-.00234016-4.0275703 2.99159564-7.4280752 6.98702945-7.935851 3.99543385-.5077758 7.74478825 2.035731 8.74997055 5.935851h-2.094c-.9384432-2.6781-3.6273188-4.3301935-6.44045197-3.9571296-2.81313317.373064-4.97845404 2.6688974-5.1864225 5.4990288-.20796845 2.8301315 1.59849286 5.417826 4.32687447 6.1981008l.158 2.111c-3.77491783-.7099349-6.50745374-4.0099102-6.501-7.851zm4.567-2.019 1.738 1.738c-.22793709.4656763-.33129721.9824769-.3 1.5l.174 2.321c-1.33058568-.6803118-2.17097344-2.0456045-2.179-3.54.00348339-.7118154.19939892-1.4094405.567-2.019zm3.147.319-1.733-1.733c.60955947-.3676011 1.3071846-.5635166 2.019-.567 1.4264953.0036128 2.7435086.7653325 3.458 2h-2.458c-.4456559.0030083-.885015.1055027-1.286.3zm29.286 1.7c.2787375-.0007851.5451535.1148034.7350035.3188921s.285903.4781544.2649965.7561079l-2.7 36c-.0393186.5227993-.4757263.9264764-1 .925h-22.6c-.5242737.0014764-.9606814-.4022007-1-.925l-2.7-36c-.0209065-.2779535.0751465-.5520192.2649965-.7561079s.456266-.3196772.7350035-.3188921h19.31l-4.349 10.076c-.3212573-.0500379-.6458696-.0754452-.971-.076-1.2818472-.0183953-2.53297.3927785-3.554 1.168-.6924309.5557861-1.558293.8503067-2.446.832-.4868374.0126587-.9713038-.0719954-1.425-.249-1.0513598-.4305483-2.2507284-.2856433-3.1692977.3829072s-1.4251791 1.7652861-1.3387023 2.8980928l1.436 19.118c.0833142 1.0433344.9533461 1.8481139 2 1.85h17.019c1.0450856-.004525 1.9123381-.8091788 1.995-1.851l1.436-19.118c.0868501-1.1329782-.4196058-2.2300445-1.3382393-2.8988456s-2.1182275-.8138056-3.1697607-.3831544c-.1912348.0760785-.3895367.1330232-.592.17l5.179-11.919zm-8 14c.7526192.0140773 1.5005037-.1219016 2.2-.4.409834-.167153.8770167-.1099828 1.2344512.1510626.3574344.2610453.5540596.6886744.5195488 1.1299374l-1.442 19.119h-17.025l-1.436-19.118c-.0271247-.3540656.0935923-.7035549.3334584-.9653992.239866-.2618443.5774604-.4126602.9325416-.4166008.16867.0005278.3355591.0345174.491.1.6939883.2753997 1.4354503.4113231 2.182.4 1.2821766.0185422 2.5336627-.3926352 3.555-1.168.6920406-.5557913 1.5575947-.8503274 2.445-.832.049 0 .091 0 .138.005l-2.052 4.753c-.210057.4874383-.2177417 1.0383839-.0213616 1.5314913.1963802.4931073.5807175.8879301 1.0683616 1.0975087l1.939.835c1.012093.4356152 2.1858736-.0294255 2.625-1.04l2.252-5.182zm-3.564-1.169c.4595506.3259225.9555735.5970907 1.478.808l-2.062 4.746-1.939-.835 2.143-4.965c.125.078.25.16.38.246zm2.277-1.031c-.4157116-.1604132-.8089644-.3738453-1.17-.635-.21-.141-.437-.29-.688-.433l4.633-10.732h2.353zm10.569-28.512h.012l.017.007c.4641446.22605079.8200338.62651595.99 1.114.86 1.975.518 5.514-.865 9.037-1.8532572-2.0091634-4.528859-3.0524009-7.253-2.828 2.017-4.985 5.388-7.977 7.099-7.33zm8.955 7.87c.8671731 1.798549.9949772 3.865314.356 5.757-.9446374-.9523246-2.0830445-1.6903453-3.338-2.164-1.0653114-.4058897-2.1970233-.609374-3.337-.6-.216 0-.416.015-.62.026 1.2659479-2.9061434 1.6937322-6.10846398 1.235-9.245 2.4728339 1.4684974 4.4571002 3.6343532 5.704 6.226zm-21.222-3.5c-1.2651396-.48885532-2.6270524-.67514664-3.977-.544 1.651-4.017 6.955-5.87 12.716-4.818-2.4869533 1.97733769-4.3707006 4.61139696-5.438 7.604-.9270034-.97568525-2.052712-1.74093521-3.301-2.244zm7.575 5.157c.7144512.1610418 1.3926743.4536951 2 .863l-1.879 4.322h-2.36z"/><path d="m25.148 43.265-.371-.99c-.4155641-1.0208038-1.5673835-1.5262753-2.6-1.141l-2.892 1.089c-1.0215381.4179336-1.5328379 1.5661543-1.16 2.605l1.1 2.87c.4010461 1.0353672 1.557396 1.558838 2.6 1.177l1.25-.477c.1651309.6316893.6222411 1.1464027 1.23 1.385l2.859 1.079c.2343766.0922071.48414.1390377.736.138.8370152-.003122 1.5864805-.5191734 1.888-1.3l1.079-2.86c.4028359-1.0385345-.1106143-2.2072151-1.148-2.613h-.009l-2.879-1.1c-.5541657-.202489-1.1692213-.1520567-1.683.138zm-4.054 3.717-1.082-2.9 2.902-1.082.9 2.393-.259.679zm6.789 2.018-2.883-1.114 1.122-2.886 2.87 1.093z"/></g></g></svg>
