<svg enable-background="new 0 0 512 512" height="512" viewbox="0 0 512 512" width="512" xmlns="http://www.w3.org/2000/svg"><g><path d="m447.944 89.988h-.028c-5.522 0-9.985 4.477-9.985 10s4.491 10 10.014 10 10-4.477 10-10-4.478-10-10.001-10z"/><path d="m448.035 141.403c0 5.523 4.506 10 10.028 10s10-4.477 10-10-4.478-10-10-10h-.057c-5.522 0-9.971 4.477-9.971 10z"/><path d="m421.866 141.771c5.522 0 10-4.477 10-10s-4.478-10-10-10h-.057c-5.522 0-9.972 4.477-9.972 10s4.507 10 10.029 10z"/><path d="m403.951 87.241h-.028c-5.522 0-9.986 4.477-9.986 10s4.492 10 10.015 10 10-4.477 10-10-4.478-10-10.001-10z"/><path d="m277.557 87.497c2.56 0 5.118-.976 7.071-2.929l.028-.028c3.905-3.905 3.891-10.223-.015-14.128s-10.251-3.889-14.156.014c-3.905 3.905-3.905 10.237 0 14.143 1.953 1.952 4.512 2.928 7.072 2.928z"/><path d="m440.656 328.042c5.508-7.344 7.864-16.438 10.143-25.234.899-3.468 1.748-6.745 2.77-9.871 9.134-28.016 19.531-43.75 29.585-58.967 15.478-23.425 28.846-43.656 28.846-96.278 0-71.788-58.452-130.192-130.3-130.192-29.703 0-58.763 10.255-81.824 28.875-4.297 3.469-4.968 9.765-1.498 14.063 3.469 4.297 9.766 4.967 14.063 1.498 19.798-15.986 43.748-24.436 69.259-24.436 60.82 0 110.3 49.432 110.3 110.192 0 46.612-10.71 62.82-25.532 85.253-10.285 15.565-21.941 33.207-31.913 63.787-1.213 3.713-2.181 7.448-3.116 11.061-4.308 16.629-6.861 22.81-17.731 23.218-.356-.018-.715-.019-1.079.002-.067.004-.13.016-.197.021-.489-.001-.989-.008-1.51-.029-.132-.005-.263-.008-.395-.008h-57.627c-.132 0-.263.002-.394.008-.525.021-1.028.028-1.521.028-.063-.005-.123-.016-.187-.02-.36-.02-.715-.02-1.066-.003-10.878-.411-13.463-6.589-17.764-23.247-.93-3.598-1.89-7.319-3.095-11.025-9.973-30.585-21.63-48.227-31.914-63.792-14.822-22.433-25.532-38.642-25.532-85.253 0-6.089.49-12.181 1.456-18.106.89-5.451-2.809-10.59-8.26-11.479-5.447-.889-10.59 2.809-11.479 8.26-1.14 6.986-1.718 14.161-1.718 21.326 0 52.623 13.367 72.854 28.846 96.279 10.055 15.216 20.451 30.951 29.583 58.959 1.012 3.111 1.854 6.376 2.747 9.833 2.273 8.804 4.624 17.909 10.135 25.263 4.317 5.762 10.013 9.615 16.997 11.548l-4.293 76.054c-17.998 6.453-29.988 23.177-29.988 43.039 0 25.389 25.071 45.834 45.83 45.834 14.565 0 23.932-4.815 30.426-10.934 6.503 6.118 15.866 10.934 30.404 10.934 20.758 0 45.829-20.445 45.829-45.834 0-19.857-11.979-36.58-29.959-43.036l-4.293-76.062c6.97-1.935 12.654-5.779 16.966-11.529zm-2.712 130.624c0 13.062-14.79 25.834-25.829 25.834-12.027 0-16.989-4.284-21.939-12.189-1.828-2.92-5.03-4.693-8.476-4.693-.003 0-.007 0-.01 0-3.449.003-6.652 1.784-8.477 4.71-4.921 7.895-9.873 12.173-21.929 12.173-11.04 0-25.83-12.772-25.83-25.834 0-12.949 8.563-23.165 21.308-25.42 4.568-.809 7.98-4.652 8.242-9.284l4.683-82.966h44.053l4.683 82.966c.262 4.63 3.672 8.474 8.239 9.283 12.73 2.256 21.282 12.472 21.282 25.42z"/><path d="m195.878 402.012h-.058c-5.522 0-9.971 4.477-9.971 10s4.506 10 10.028 10 10-4.477 10-10-4.476-10-9.999-10z"/><path d="m205.969 360.569h-.057c-5.522 0-9.972 4.477-9.972 10s4.506 10 10.028 10 10-4.477 10-10-4.477-10-9.999-10z"/><path d="m169.771 370.2h-.057c-5.522 0-9.972 4.477-9.972 10s4.506 10 10.028 10 10-4.477 10-10-4.477-10-9.999-10z"/><path d="m152.523 404.759h-.028c-5.522 0-9.986 4.477-9.986 10s4.492 10 10.015 10 10-4.477 10-10-4.478-10-10.001-10z"/><path d="m231.737 278.033c-10.058-15.22-20.458-30.958-29.597-58.997-1.015-3.114-1.86-6.381-2.755-9.84-3.539-13.681-8.218-31.704-27.119-36.814l4.29-76.028c17.999-6.432 29.988-23.158 29.988-43.048 0-25.374-25.087-45.806-45.858-45.806-14.535 0-23.898 4.813-30.403 10.924-6.493-6.112-15.851-10.924-30.398-10.924-20.771 0-45.857 20.432-45.857 45.806 0 19.89 11.988 36.616 29.987 43.048l4.29 76.028c-18.901 5.111-23.581 23.134-27.119 36.815-.895 3.458-1.739 6.725-2.754 9.838-9.137 28.034-19.536 43.771-29.593 58.989-15.475 23.418-28.839 43.642-28.839 96.256 0 71.803 58.439 130.22 130.271 130.22 62.248 0 116.04-44.253 127.907-105.235 1.588-8.21 2.393-16.616 2.393-24.985 0-12.674-.762-23.764-2.33-33.914-4.517-29.062-15.197-45.223-26.504-62.333zm-157.71-224.727c0-13.047 14.807-25.806 25.857-25.806 12.029 0 16.979 4.272 21.907 12.155 1.825 2.921 5.025 4.696 8.47 4.7h.01c3.44 0 6.64-1.769 8.469-4.683 4.957-7.894 9.922-12.172 21.946-12.172 11.052 0 25.858 12.758 25.858 25.806 0 12.971-8.557 23.185-21.292 25.417-4.575.802-7.996 4.648-8.258 9.286l-4.683 82.995h-44.051l-4.683-82.995c-.262-4.638-3.683-8.484-8.258-9.286-12.735-2.232-21.292-12.447-21.292-25.417zm164.518 342.15c-10.041 51.596-55.576 89.044-108.273 89.044-60.804 0-110.272-49.444-110.272-110.22 0-46.603 10.706-62.805 25.524-85.229 10.287-15.568 21.947-33.212 31.923-63.818 1.207-3.703 2.17-7.426 3.102-11.027 4.423-17.102 6.847-22.818 17.961-23.214.285.009.571.012.861-.004.084-.005.164-.02.248-.027.086-.001.181-.005.264-.005.347 0 .669.009.985.029.201.012.403.018.604.018h57.628c.208 0 .416-.006.623-.02.37-.023.797-.027 1.25-.02.076.006.15.02.227.024.192.011.383.016.572.016.091 0 .179-.011.27-.013 11.131.389 13.555 6.103 17.981 23.213.932 3.602 1.895 7.326 3.102 11.029 9.978 30.61 21.638 48.256 31.926 63.825 10.939 16.554 19.58 29.63 23.427 54.37 1.409 9.119 2.094 19.21 2.094 30.851-.001 7.099-.683 14.228-2.027 21.178z"/></g></svg>
