<svg xmlns="http://www.w3.org/2000/svg"  viewbox="0 0 512 512"><path d="M408,192a40,40,0,1,0,40,40A40.045,40.045,0,0,0,408,192Zm0,16a24.024,24.024,0,0,1,23.989,23.563l-42.909-14.3A23.964,23.964,0,0,1,408,208Zm0,48a24.024,24.024,0,0,1-23.989-23.563l42.909,14.3A23.964,23.964,0,0,1,408,256Z"/><path d="M495.887,296a8,8,0,0,0-1.344-4.433l-14.656-21.984V210.422l14.656-21.984A8,8,0,0,0,495.887,184V128c0-30.191-35.353-53.388-48-60.72V64H448a8,8,0,0,0,8-8V24a8,8,0,0,0-8-8H368a8,8,0,0,0-8,8V56a8,8,0,0,0,8,8h.113v3.28c-12.647,7.332-48,30.529-48,60.72v13.035a44,44,0,0,0-27.586-1.159c-.74-10.888-4.866-25.692-20.25-34.63A22.04,22.04,0,0,0,280,88a32.036,32.036,0,0,0-32-32,24.3,24.3,0,0,0-17.336,7.655,25.145,25.145,0,0,0-2.573,3.155A29.692,29.692,0,0,0,216,64a32.009,32.009,0,0,0-27.7,16.008c-.106,0-.209-.008-.315-.008-26.57,0-40.353,10.348-47.237,19.029a43.373,43.373,0,0,0-4.372,6.7,38.426,38.426,0,0,0-9.647-4.813A32.04,32.04,0,0,0,95,73a29.692,29.692,0,0,0-12.091,2.81,25.145,25.145,0,0,0-2.573-3.155A24.3,24.3,0,0,0,63,65,32.036,32.036,0,0,0,31,97a22.128,22.128,0,0,0,10.291,19.184A32.547,32.547,0,0,0,39,129a31.789,31.789,0,0,0,3.375,14.279,35.75,35.75,0,0,0-3.636,2.682c-.059.052-.118.1-.176.158-11.325,10.442-15.892,23.139-13.192,36.192A39.813,39.813,0,0,0,16,208c0,2.426,17.431,154.1,32.053,280.917A8,8,0,0,0,56,496H312a8,8,0,0,0,7.947-7.083s.408-3.54,1.131-9.808A24.028,24.028,0,0,0,344.01,496H471.99a24,24,0,0,0,24-24.014ZM465.23,203.562A8,8,0,0,0,463.887,208v64a8,8,0,0,0,1.343,4.438l14.658,21.986,0,5.576H336.109l0-5.576,14.658-21.986A8,8,0,0,0,352.113,272V208a8,8,0,0,0-1.343-4.438l-14.657-21.984V176H479.887v5.578ZM479.887,136v24H336.113V136ZM376,32h64V48H376Zm3.75,47.125A8,8,0,0,0,384.113,72V64h47.774v8a8,8,0,0,0,4.363,7.125c10.641,5.432,36.161,22.134,42.292,40.875H337.465C343.61,101.31,369.117,84.576,379.75,79.125ZM216,80c2.171,0,7.3,1.327,9.314,4.393a8,8,0,0,0,14.679-4.719,7.148,7.148,0,0,1,2.213-4.939A8.38,8.38,0,0,1,248,72a16.019,16.019,0,0,1,16,16c0,1.583,0,6.4-9.442,8.131a8,8,0,0,0-1.292,15.388c2.016.732,2.734,4.861,2.734,8.481a16,16,0,0,1-32,0,8,8,0,0,0-8-8,16,16,0,0,1,0-32Zm-82.562,44.594a8.061,8.061,0,0,0,6.581,3.446,7.832,7.832,0,0,0,2.043-.271,7.939,7.939,0,0,0,5.886-7,25.846,25.846,0,0,1,5.821-12.394C160.07,100.873,170.237,96.76,184,96.1a32.059,32.059,0,0,0,24.811,31.083,32,32,0,0,0,62.68-1.551c7.353,10.229,4.792,24.062,4.656,24.759a8.015,8.015,0,0,0,12.107,8.37c.663-.411,16.373-9.97,31.319-.091.188.124.357.271.538.4v9.762A39.908,39.908,0,0,0,280,184.025a39.963,39.963,0,0,0-64,0,39.96,39.96,0,0,0-64,0,39.958,39.958,0,0,0-64,0,39.933,39.933,0,0,0-46.945-13.121c1.025-4.473,3.753-8.747,8.216-12.9a27.606,27.606,0,0,1,3.808-2.512,31.987,31.987,0,0,0,49.108-19.311,32.132,32.132,0,0,0,22.355-18.9A27.381,27.381,0,0,1,133.438,124.594Zm15.979,273.135L151.768,480H111.556l-5.3-92.853C118.71,392.078,133.635,395.626,149.417,397.729Zm16.053,1.622c6.162.43,12.367.649,18.53.649s12.368-.219,18.53-.649L200.225,480h-32.45Zm53.113-1.622c15.782-2.1,30.707-5.651,43.166-10.582L256.444,480H216.232ZM184,384c-59.479,0-96-18.638-96-32s36.521-32,96-32,96,18.638,96,32S243.479,384,184,384ZM96,207.838A24,24,0,0,1,144,208c0,.077.009.152.011.228H144l2.812,98.4c-16.5,2.38-31.956,6.356-44.488,11.855Zm109.225,97.014C198.184,304.287,191.064,304,184,304s-14.184.287-21.229.852L160,207.933a24,24,0,0,1,48,0Zm15.956,1.78,2.812-98.4h-.008c0-.076.011-.151.011-.228a24,24,0,0,1,48-.162l-6.323,110.649C253.141,312.988,237.686,309.011,221.185,306.632ZM63,81a8.38,8.38,0,0,1,5.794,2.735,7.148,7.148,0,0,1,2.213,4.939,8,8,0,0,0,14.679,4.719C87.7,90.327,92.829,89,95,89a16,16,0,0,1,0,32,8,8,0,0,0-8,8,16,16,0,0,1-32,0c0-3.62.718-7.749,2.734-8.481a8,8,0,0,0-1.292-15.388C47,103.4,47,98.583,47,97A16.019,16.019,0,0,1,63,81ZM32,207.721A24,24,0,0,1,80,208c0,.154.014.3.023.456h-.01L86.8,327.233C77.542,334.063,72,342.342,72,352c0,10.644,6.729,19.613,17.748,26.812L95.53,480h-32.4C52.189,385.091,32.792,216.355,32,207.721ZM319.931,349.073C313.5,405.122,307.089,460.744,304.869,480h-32.4l5.782-101.188C289.271,371.613,296,362.644,296,352c0-9.658-5.542-17.937-14.8-24.767l6.787-118.776h-.01c.009-.152.023-.3.023-.456a23.984,23.984,0,0,1,32.268-22.524,7.993,7.993,0,0,0,1.189,2.962l14.656,21.984v59.156l-14.656,21.984A8,8,0,0,0,320.113,296l-.031,53.1ZM477.649,477.655A7.948,7.948,0,0,1,471.99,480H344.01a8,8,0,0,1-8-8l.09-152H479.9l.09,152A7.948,7.948,0,0,1,477.649,477.655Z"/></svg>
